<svg id="Layer_1" xmlns="http://www.w3.org/2000/svg" xmlns:xlink="http://www.w3.org/1999/xlink"
     viewBox="0 0 1841.55 391.32">
    <defs>
        <style>
            .cls-1{fill:url(#linear-gradient);fill-rule:evenodd;}.cls-2,.cls-3{fill:#000010;}.cls-3{stroke:#000010;}
        </style>
        <linearGradient id="linear-gradient" x1="40.14" y1="195.36" x2="311.21" y2="195.36"
                        gradientUnits="userSpaceOnUse">
            <stop offset="0" stop-color="#3554d9"/>
            <stop offset="1" stop-color="#6b80dd"/>
        </linearGradient>
    </defs>
    <g id="_logotype_1">
        <path class="cls-1"
              d="M304.43,115.02l-67.88,39.3-60.87-35.39-61.29,35.39L46.87,115.06,175.69,40.69l128.75,74.34ZM40.14,275.44l128.3,74.06v-78.24l-60.54-34.95v-70.04L40.14,126.86v148.58Zm203.3-109.47v70.34l-61.44,35.48v78.25l129.21-74.61V126.73l-67.77,39.23Z"/>
        <path class="cls-3"
              d="M567.71,276.06h.45v-64.84h78.93v-21.29h-78.93v-42.47h87.39v-21.29h-110.41v149.88h22.57Zm133.83,0h.45V126.18h-22.84v149.88h22.39Zm57.25,0h.45v-112.05l84.85,111.87,.14,.18h22.58V126.18h-22.84v112.05l-84.85-111.87-.14-.18h-22.58v149.88h22.39Zm252.2,0h.45v-21.29h-87.43v-44.42h78.93v-21.29h-78.93v-41.56h87.39v-21.32h-110.41v149.88h110Zm49.44,0h.45v-51.83h33.58l36.26,51.64,.14,.19h26.26l-.5-.71-37.58-53.47c22.42-6.06,37.88-23.67,37.88-46.68,0-28.71-24.12-49.03-55.75-49.03h-63.12v149.88h22.39Zm.45-73.12v-55.48h37.28c10.66,0,19.56,2.64,25.78,7.42,6.2,4.77,9.77,11.68,9.77,20.32s-3.58,15.56-9.79,20.32c-6.23,4.78-15.13,7.42-25.8,7.42h-37.24Zm189.26,73.12h.45v-58.65l59.13-90.53,.45-.7h-26.45l-.14,.21-44.73,69.24-44.08-69.23-.14-.21h-27.54l.46,.7,59.56,90.53v58.65h23ZM378.98,126.07h-.45v149.88h54.88c51.36,0,87.63-31.15,87.63-75.05,0-21.93-9.05-40.65-24.54-53.88-15.49-13.23-37.39-20.95-63.09-20.95h-54.43Zm22.39,128.58v-107.25h35.95c35.27,0,60.48,22.23,60.48,53.48s-25.21,53.77-60.48,53.77h-35.95Z"/>
        <g>
            <path class="cls-2"
                  d="M1334.67,200.42c0-42.46,35.64-78.1,77.44-78.1,20.9,0,40.26,8.8,54.34,23.1l-9.68,9.68c-11.44-11.88-27.5-19.58-44.66-19.58-34.32,0-63.14,29.7-63.14,64.9s28.82,65.12,63.14,65.12c17.16,0,33.22-7.7,44.66-19.8l9.68,9.9c-14.08,14.08-33.44,23.1-54.34,23.1-41.8,0-77.44-35.86-77.44-78.32Z"/>
            <path class="cls-2"
                  d="M1563.69,219.34l40.04,56.76h-16.28l-39.38-55.88h-43.78v55.88h-14.08V124.96h62.04c31.02,0,54.56,19.8,54.56,47.74,0,24.42-17.82,42.46-43.12,46.64Zm-59.4-12.54h45.54c25.3,0,42.9-13.2,42.9-34.1s-17.6-34.32-42.9-34.32h-45.54v68.42Z"/>
            <path class="cls-2"
                  d="M1629.02,124.96h14.08l57.64,108.24,57.64-108.24h14.08v151.14h-14.08v-121.22l-57.64,108.24-57.64-108.24v121.22h-14.08V124.96Z"/>
        </g>
    </g>
</svg>
